<svg xmlns="http://www.w3.org/2000/svg" version="1.1" xmlns:xlink="http://www.w3.org/1999/xlink" xmlns:svgjs="http://svgjs.dev/svgjs" width="1920" height="1080" preserveAspectRatio="none" viewBox="0 0 1920 1080"><g mask="url(&quot;#SvgjsMask1007&quot;)" fill="none"><rect width="1920" height="1080" x="0" y="0" fill="rgba(247, 205, 174, 1)"></rect><path d="M2200.02 554.45C2056.36 553.5 1920.75 419.45 1641.47 419.45 1362.2 419.45 1382.65 562.1 1082.92 554.45 783.19 546.8 718.41 30.52 524.37-16.92" stroke="rgba(254, 254, 255, 1)" stroke-width="2"></path><path d="M2077.96 373.12C1847.3 382.44 1681.45 769.05 1240.41 761.92 799.36 754.79 705.56-92.81 402.85-181.07" stroke="rgba(254, 254, 255, 1)" stroke-width="2"></path><path d="M2259.69 773.51C2032.59 771.11 1871.23 547.27 1385.86 525.11 900.48 502.95 775.78-48.55 512.02-76.72" stroke="rgba(254, 254, 255, 1)" stroke-width="2"></path><path d="M1979.11 697.41C1737.79 699.82 1551.23 971.06 1049.22 956.61 547.21 942.16 451.59 30.15 119.33-62.07" stroke="rgba(254, 254, 255, 1)" stroke-width="2"></path><path d="M2288.61 832.79C2034.64 823.8 1885.52 453.33 1358.61 422.39 831.7 391.45 702.71-142.13 428.61-166.16" stroke="rgba(254, 254, 255, 1)" stroke-width="2"></path></g><defs><mask id="SvgjsMask1007"><rect width="1920" height="1080" fill="#ffffff"></rect></mask></defs></svg>