<svg id="visual" viewBox="0 0 1080 200" width="1080" height="200" xmlns="http://www.w3.org/2000/svg" xmlns:xlink="http://www.w3.org/1999/xlink" version="1.1"><g stroke-width="1" stroke-linejoin="bevel"><path d="M545 98.7L577.5 167.3L577.5 80.7Z" fill="#575462" stroke="#575462"></path><path d="M545 98.7L563 165.3L577.5 167.3Z" fill="#34323e" stroke="#34323e"></path><path d="M546 200L599.5 200L577.5 167.3Z" fill="#4f4d5a" stroke="#4f4d5a"></path><path d="M577.5 167.3L709 115.3L577.5 80.7Z" fill="#575462" stroke="#575462"></path><path d="M502.5 200L546 200L563 165.3Z" fill="#484653" stroke="#484653"></path><path d="M563 165.3L546 200L577.5 167.3Z" fill="#413f4c" stroke="#413f4c"></path><path d="M460.5 77.7L480.5 107.3L545 98.7Z" fill="#2f2d37" stroke="#2f2d37"></path><path d="M545 98.7L480.5 107.3L563 165.3Z" fill="#373541" stroke="#373541"></path><path d="M480.5 107.3L502.5 200L563 165.3Z" fill="#32303a" stroke="#32303a"></path><path d="M599.5 200L664 200L577.5 167.3Z" fill="#5e5b69" stroke="#5e5b69"></path><path d="M510 0L460.5 77.7L545 98.7Z" fill="#3a3845" stroke="#3a3845"></path><path d="M480.5 107.3L392 200L502.5 200Z" fill="#5e5b69" stroke="#5e5b69"></path><path d="M664 200L709 115.3L577.5 167.3Z" fill="#32303a" stroke="#32303a"></path><path d="M709 115.3L688 43.7L577.5 80.7Z" fill="#2c2a33" stroke="#2c2a33"></path><path d="M577.5 80.7L510 0L545 98.7Z" fill="#2f2d37" stroke="#2f2d37"></path><path d="M688 43.7L644.5 0L577.5 80.7Z" fill="#413f4c" stroke="#413f4c"></path><path d="M644.5 0L510 0L577.5 80.7Z" fill="#373541" stroke="#373541"></path><path d="M510 0L503.5 0L460.5 77.7Z" fill="#373541" stroke="#373541"></path><path d="M432 0L440 78.7L460.5 77.7Z" fill="#2f2d37" stroke="#2f2d37"></path><path d="M460.5 77.7L440 78.7L480.5 107.3Z" fill="#2f2d37" stroke="#2f2d37"></path><path d="M688 43.7L670 0L644.5 0Z" fill="#575462" stroke="#575462"></path><path d="M664 200L732.5 200L709 115.3Z" fill="#2f2d37" stroke="#2f2d37"></path><path d="M779.5 109.3L752.5 75.7L709 115.3Z" fill="#2c2a33" stroke="#2c2a33"></path><path d="M709 115.3L752.5 75.7L688 43.7Z" fill="#2c2a33" stroke="#2c2a33"></path><path d="M688 43.7L744.5 0L670 0Z" fill="#4f4d5a" stroke="#4f4d5a"></path><path d="M503.5 0L432 0L460.5 77.7Z" fill="#2c2a33" stroke="#2c2a33"></path><path d="M732.5 200L779.5 109.3L709 115.3Z" fill="#2c2a33" stroke="#2c2a33"></path><path d="M376 169.3L480.5 107.3L440 78.7Z" fill="#413f4c" stroke="#413f4c"></path><path d="M376 169.3L392 200L480.5 107.3Z" fill="#575462" stroke="#575462"></path><path d="M832 0L744.5 0L752.5 75.7Z" fill="#413f4c" stroke="#413f4c"></path><path d="M752.5 75.7L744.5 0L688 43.7Z" fill="#3a3845" stroke="#3a3845"></path><path d="M372.5 72.7L376 169.3L440 78.7Z" fill="#484653" stroke="#484653"></path><path d="M432 0L372.5 72.7L440 78.7Z" fill="#575462" stroke="#575462"></path><path d="M732.5 200L830 200L779.5 109.3Z" fill="#2f2d37" stroke="#2f2d37"></path><path d="M779.5 109.3L848.5 82.7L752.5 75.7Z" fill="#413f4c" stroke="#413f4c"></path><path d="M372.5 72.7L314.5 147.3L376 169.3Z" fill="#575462" stroke="#575462"></path><path d="M376 169.3L297.5 200L392 200Z" fill="#575462" stroke="#575462"></path><path d="M830 200L847 114.3L779.5 109.3Z" fill="#3a3845" stroke="#3a3845"></path><path d="M847 114.3L847 98.7L779.5 109.3Z" fill="#2f2d37" stroke="#2f2d37"></path><path d="M432 0L339.5 0L372.5 72.7Z" fill="#373541" stroke="#373541"></path><path d="M255 51.7L284 147.3L314.5 147.3Z" fill="#3a3845" stroke="#3a3845"></path><path d="M898.5 117.3L848.5 82.7L847 98.7Z" fill="#5e5b69" stroke="#5e5b69"></path><path d="M847 98.7L848.5 82.7L779.5 109.3Z" fill="#2c2a33" stroke="#2c2a33"></path><path d="M848.5 82.7L832 0L752.5 75.7Z" fill="#4f4d5a" stroke="#4f4d5a"></path><path d="M284 147.3L297.5 200L314.5 147.3Z" fill="#32303a" stroke="#32303a"></path><path d="M314.5 147.3L297.5 200L376 169.3Z" fill="#2c2a33" stroke="#2c2a33"></path><path d="M255 51.7L314.5 147.3L372.5 72.7Z" fill="#2f2d37" stroke="#2f2d37"></path><path d="M339.5 0L306 0L372.5 72.7Z" fill="#2c2a33" stroke="#2c2a33"></path><path d="M848.5 82.7L859.5 0L832 0Z" fill="#2c2a33" stroke="#2c2a33"></path><path d="M916 0L859.5 0L929 40.7Z" fill="#413f4c" stroke="#413f4c"></path><path d="M830 200L882.5 200L847 114.3Z" fill="#2f2d37" stroke="#2f2d37"></path><path d="M847 114.3L898.5 117.3L847 98.7Z" fill="#32303a" stroke="#32303a"></path><path d="M882.5 200L898.5 117.3L847 114.3Z" fill="#2c2a33" stroke="#2c2a33"></path><path d="M306 0L255 51.7L372.5 72.7Z" fill="#575462" stroke="#575462"></path><path d="M284 147.3L235.5 154.3L297.5 200Z" fill="#32303a" stroke="#32303a"></path><path d="M228.5 104.7L235.5 154.3L284 147.3Z" fill="#3a3845" stroke="#3a3845"></path><path d="M255 51.7L228.5 104.7L284 147.3Z" fill="#373541" stroke="#373541"></path><path d="M929 40.7L859.5 0L848.5 82.7Z" fill="#4f4d5a" stroke="#4f4d5a"></path><path d="M200.5 200L230 200L235.5 154.3Z" fill="#2f2d37" stroke="#2f2d37"></path><path d="M235.5 154.3L230 200L297.5 200Z" fill="#413f4c" stroke="#413f4c"></path><path d="M984.5 96.3L929 40.7L898.5 117.3Z" fill="#575462" stroke="#575462"></path><path d="M898.5 117.3L929 40.7L848.5 82.7Z" fill="#4f4d5a" stroke="#4f4d5a"></path><path d="M882.5 200L943 167.3L898.5 117.3Z" fill="#4f4d5a" stroke="#4f4d5a"></path><path d="M118 105.7L200.5 200L235.5 154.3Z" fill="#373541" stroke="#373541"></path><path d="M255 51.7L208.5 0L228.5 104.7Z" fill="#5e5b69" stroke="#5e5b69"></path><path d="M118 105.7L131 200L200.5 200Z" fill="#32303a" stroke="#32303a"></path><path d="M306 0L208.5 0L255 51.7Z" fill="#413f4c" stroke="#413f4c"></path><path d="M882.5 200L971 200L943 167.3Z" fill="#32303a" stroke="#32303a"></path><path d="M943 167.3L984.5 96.3L898.5 117.3Z" fill="#2f2d37" stroke="#2f2d37"></path><path d="M985.5 200L984.5 96.3L943 167.3Z" fill="#373541" stroke="#373541"></path><path d="M929 40.7L978.5 0L916 0Z" fill="#5e5b69" stroke="#5e5b69"></path><path d="M971 200L985.5 200L943 167.3Z" fill="#4f4d5a" stroke="#4f4d5a"></path><path d="M984.5 96.3L978.5 0L929 40.7Z" fill="#373541" stroke="#373541"></path><path d="M208.5 0L173 0L228.5 104.7Z" fill="#413f4c" stroke="#413f4c"></path><path d="M118 105.7L235.5 154.3L228.5 104.7Z" fill="#484653" stroke="#484653"></path><path d="M1080 65.7L1029.5 41.7L984.5 96.3Z" fill="#2f2d37" stroke="#2f2d37"></path><path d="M984.5 96.3L1029.5 41.7L978.5 0Z" fill="#413f4c" stroke="#413f4c"></path><path d="M173 0L118 105.7L228.5 104.7Z" fill="#3a3845" stroke="#3a3845"></path><path d="M97.5 34.7L97 111.3L118 105.7Z" fill="#34323e" stroke="#34323e"></path><path d="M118 105.7L97 111.3L131 200Z" fill="#32303a" stroke="#32303a"></path><path d="M173 0L97.5 34.7L118 105.7Z" fill="#32303a" stroke="#32303a"></path><path d="M173 0L101.5 0L97.5 34.7Z" fill="#3a3845" stroke="#3a3845"></path><path d="M985.5 200L1080 122.3L984.5 96.3Z" fill="#373541" stroke="#373541"></path><path d="M1080 122.3L1080 65.7L984.5 96.3Z" fill="#32303a" stroke="#32303a"></path><path d="M1029.5 41.7L1080 0L978.5 0Z" fill="#5e5b69" stroke="#5e5b69"></path><path d="M985.5 200L1080 200L1080 122.3Z" fill="#2c2a33" stroke="#2c2a33"></path><path d="M1080 65.7L1080 0L1029.5 41.7Z" fill="#373541" stroke="#373541"></path><path d="M0 103.3L62.5 108.3L0 29.7Z" fill="#373541" stroke="#373541"></path><path d="M97.5 34.7L62.5 108.3L97 111.3Z" fill="#2f2d37" stroke="#2f2d37"></path><path d="M97 111.3L61.5 200L131 200Z" fill="#484653" stroke="#484653"></path><path d="M62.5 108.3L61.5 200L97 111.3Z" fill="#373541" stroke="#373541"></path><path d="M0 29.7L62.5 108.3L97.5 34.7Z" fill="#32303a" stroke="#32303a"></path><path d="M62.5 108.3L0 200L61.5 200Z" fill="#2c2a33" stroke="#2c2a33"></path><path d="M0 103.3L0 200L62.5 108.3Z" fill="#3a3845" stroke="#3a3845"></path><path d="M0 0L0 29.7L97.5 34.7Z" fill="#4f4d5a" stroke="#4f4d5a"></path><path d="M101.5 0L0 0L97.5 34.7Z" fill="#2c2a33" stroke="#2c2a33"></path></g></svg>